<?xml version="1.0" encoding="UTF-8"?>
<svg xmlns="http://www.w3.org/2000/svg" xmlns:xlink="http://www.w3.org/1999/xlink" width="504pt" height="504pt" viewBox="0 0 504 504">
<defs>
<g>
<g id="glyph-0-0">
<path d="M 3.515625 -5.03125 L 2.65625 -5.03125 L 2.953125 -6.40625 L 2.15625 -6.40625 L 1.859375 -5.03125 L 1.171875 -5.03125 L 1.03125 -4.390625 L 1.71875 -4.390625 L 0.953125 -0.828125 C 0.9375 -0.734375 0.9375 -0.640625 0.9375 -0.53125 C 0.9375 -0.15625 1.09375 0.0625 1.46875 0.171875 C 1.578125 0.203125 1.671875 0.21875 1.78125 0.21875 C 1.984375 0.21875 2.265625 0.1875 2.40625 0.15625 L 2.5625 -0.546875 C 2.25 -0.46875 2.21875 -0.46875 2.09375 -0.46875 C 1.921875 -0.46875 1.796875 -0.53125 1.765625 -0.65625 C 1.75 -0.6875 1.75 -0.703125 1.75 -0.734375 C 1.75 -0.765625 1.765625 -0.8125 1.78125 -0.859375 L 2.515625 -4.390625 L 3.375 -4.390625 Z M 3.515625 -5.03125 "/>
</g>
<g id="glyph-0-1">
<path d="M 2.796875 -3.1875 C 3 -3.203125 3.09375 -3.203125 3.234375 -3.203125 C 3.96875 -3.203125 4.40625 -2.9375 4.484375 -2.453125 C 4.484375 -2.40625 4.484375 -2.359375 4.484375 -2.3125 C 4.484375 -1.25 3.734375 -0.515625 2.671875 -0.515625 C 2.03125 -0.515625 1.609375 -0.828125 1.546875 -1.375 C 1.53125 -1.421875 1.53125 -1.453125 1.53125 -1.5 C 1.53125 -1.65625 1.546875 -1.765625 1.578125 -2.015625 L 0.734375 -2.015625 C 0.703125 -1.71875 0.6875 -1.578125 0.6875 -1.40625 C 0.6875 -0.359375 1.34375 0.21875 2.53125 0.21875 C 3.390625 0.21875 4.125 -0.078125 4.625 -0.625 C 5.0625 -1.109375 5.328125 -1.796875 5.328125 -2.4375 C 5.328125 -3 5.125 -3.3125 4.59375 -3.59375 C 5.40625 -4.0625 5.78125 -4.640625 5.78125 -5.5 C 5.78125 -6.140625 5.390625 -6.640625 4.78125 -6.828125 C 4.546875 -6.890625 4.296875 -6.9375 4.03125 -6.9375 C 3.25 -6.9375 2.5625 -6.65625 2.09375 -6.109375 C 1.8125 -5.78125 1.640625 -5.40625 1.453125 -4.703125 L 2.296875 -4.703125 C 2.484375 -5.53125 2.78125 -5.921875 3.375 -6.125 C 3.546875 -6.171875 3.71875 -6.203125 3.921875 -6.203125 C 4.546875 -6.203125 4.9375 -5.875 4.9375 -5.359375 C 4.9375 -4.96875 4.8125 -4.59375 4.609375 -4.359375 C 4.34375 -4.0625 3.84375 -3.90625 3.125 -3.90625 L 2.953125 -3.90625 Z M 2.796875 -3.1875 "/>
</g>
<g id="glyph-0-2">
<path d="M 3.484375 -1.671875 L 3.125 0 L 3.96875 0 L 4.328125 -1.671875 L 5.34375 -1.671875 L 5.5 -2.421875 L 4.484375 -2.421875 L 5.453125 -6.9375 L 4.8125 -6.9375 L 0.8125 -2.5625 L 0.609375 -1.671875 Z M 3.640625 -2.421875 L 1.53125 -2.421875 L 4.28125 -5.46875 Z M 3.640625 -2.421875 "/>
</g>
<g id="glyph-0-3">
<path d="M 3.546875 -4.984375 L 2.484375 0 L 3.328125 0 L 4.8125 -6.9375 L 4.25 -6.9375 C 3.734375 -5.90625 3.53125 -5.765625 2.15625 -5.578125 L 2.03125 -4.984375 Z M 3.546875 -4.984375 "/>
</g>
<g id="glyph-0-4">
<path d="M 5.03125 -0.828125 L 1.40625 -0.828125 C 1.546875 -1.3125 2.09375 -1.796875 2.984375 -2.25 L 4.0625 -2.828125 C 4.90625 -3.265625 5.4375 -3.71875 5.734375 -4.296875 C 5.875 -4.609375 5.96875 -4.9375 5.96875 -5.265625 C 5.96875 -6.015625 5.546875 -6.625 4.90625 -6.828125 C 4.65625 -6.890625 4.40625 -6.9375 4.140625 -6.9375 C 2.65625 -6.9375 1.8125 -6.1875 1.421875 -4.53125 L 2.28125 -4.53125 C 2.390625 -4.96875 2.5 -5.265625 2.671875 -5.515625 C 2.96875 -5.953125 3.46875 -6.203125 4.015625 -6.203125 C 4.6875 -6.203125 5.125 -5.78125 5.125 -5.15625 C 5.125 -4.515625 4.65625 -3.921875 3.859375 -3.515625 L 2.859375 -3 C 2.046875 -2.578125 1.40625 -2.09375 1.03125 -1.625 C 0.734375 -1.265625 0.625 -1 0.328125 -0.015625 L 4.84375 -0.015625 Z M 5.03125 -0.828125 "/>
</g>
<g id="glyph-1-0">
<path d="M 4.859375 -0.828125 L 1.28125 -0.828125 C 1.359375 -1.40625 1.671875 -1.78125 2.5 -2.28125 L 3.46875 -2.828125 C 4.40625 -3.34375 4.90625 -4.0625 4.90625 -4.90625 C 4.90625 -5.484375 4.671875 -6.03125 4.265625 -6.40625 C 3.859375 -6.765625 3.375 -6.9375 2.71875 -6.9375 C 1.859375 -6.9375 1.21875 -6.625 0.84375 -6.03125 C 0.609375 -5.671875 0.5 -5.234375 0.484375 -4.53125 L 1.328125 -4.53125 C 1.359375 -5.015625 1.40625 -5.28125 1.53125 -5.515625 C 1.75 -5.9375 2.1875 -6.203125 2.703125 -6.203125 C 3.46875 -6.203125 4.03125 -5.640625 4.03125 -4.890625 C 4.03125 -4.34375 3.71875 -3.859375 3.125 -3.515625 L 2.234375 -3 C 0.8125 -2.171875 0.40625 -1.53125 0.328125 -0.015625 L 4.859375 -0.015625 Z M 4.859375 -0.828125 "/>
</g>
<g id="glyph-1-1">
<path d="M 1.828125 -1 L 0.828125 -1 L 0.828125 0 L 1.828125 0 Z M 1.828125 -1 "/>
</g>
<g id="glyph-1-2">
<path d="M 4.5625 -6.796875 L 1.0625 -6.796875 L 0.546875 -3.09375 L 1.328125 -3.09375 C 1.71875 -3.5625 2.046875 -3.734375 2.578125 -3.734375 C 3.484375 -3.734375 4.0625 -3.109375 4.0625 -2.09375 C 4.0625 -1.125 3.484375 -0.53125 2.578125 -0.53125 C 1.828125 -0.53125 1.375 -0.90625 1.1875 -1.671875 L 0.328125 -1.671875 C 0.453125 -1.109375 0.546875 -0.84375 0.75 -0.59375 C 1.125 -0.078125 1.828125 0.21875 2.59375 0.21875 C 3.96875 0.21875 4.921875 -0.78125 4.921875 -2.21875 C 4.921875 -3.5625 4.03125 -4.484375 2.71875 -4.484375 C 2.25 -4.484375 1.859375 -4.359375 1.46875 -4.0625 L 1.734375 -5.96875 L 4.5625 -5.96875 Z M 4.5625 -6.796875 "/>
</g>
<g id="glyph-1-3">
<path d="M 2.484375 -4.9375 L 2.484375 0 L 3.328125 0 L 3.328125 -6.9375 L 2.765625 -6.9375 C 2.46875 -5.875 2.28125 -5.734375 0.984375 -5.5625 L 0.984375 -4.9375 Z M 2.484375 -4.9375 "/>
</g>
<g id="glyph-1-4">
<path d="M 2.640625 -6.9375 C 2 -6.9375 1.421875 -6.65625 1.078125 -6.171875 C 0.640625 -5.5625 0.40625 -4.640625 0.40625 -3.359375 C 0.40625 -1.015625 1.1875 0.21875 2.640625 0.21875 C 4.078125 0.21875 4.859375 -1.015625 4.859375 -3.296875 C 4.859375 -4.640625 4.65625 -5.546875 4.203125 -6.171875 C 3.84375 -6.65625 3.28125 -6.9375 2.640625 -6.9375 Z M 2.640625 -6.1875 C 3.546875 -6.1875 4 -5.25 4 -3.375 C 4 -1.40625 3.5625 -0.484375 2.625 -0.484375 C 1.734375 -0.484375 1.28125 -1.4375 1.28125 -3.34375 C 1.28125 -5.25 1.734375 -6.1875 2.640625 -6.1875 Z M 2.640625 -6.1875 "/>
</g>
</g>
</defs>
<rect x="-50.4" y="-50.4" width="604.8" height="604.8" fill="rgb(100%, 100%, 100%)" fill-opacity="1"/>
<g fill="rgb(0%, 0%, 0%)" fill-opacity="1">
<use xlink:href="#glyph-0-0" x="450.421875" y="350.638672"/>
<use xlink:href="#glyph-0-1" x="453.421875" y="350.638672"/>
</g>
<g fill="rgb(0%, 0%, 0%)" fill-opacity="1">
<use xlink:href="#glyph-0-0" x="450.421875" y="281.837891"/>
<use xlink:href="#glyph-0-2" x="453.421875" y="281.837891"/>
</g>
<g fill="rgb(0%, 0%, 0%)" fill-opacity="1">
<use xlink:href="#glyph-0-0" x="450.421875" y="213.037109"/>
<use xlink:href="#glyph-0-3" x="453.421875" y="213.037109"/>
</g>
<g fill="rgb(0%, 0%, 0%)" fill-opacity="1">
<use xlink:href="#glyph-0-0" x="450.421875" y="144.240234"/>
<use xlink:href="#glyph-0-4" x="453.421875" y="144.240234"/>
</g>
<path fill="none" stroke-width="1.5" stroke-linecap="round" stroke-linejoin="round" stroke="rgb(0%, 0%, 0%)" stroke-opacity="1" stroke-miterlimit="10" d="M 149.605469 182.878906 L 300.011719 182.878906 "/>
<path fill="none" stroke-width="1.5" stroke-linecap="round" stroke-linejoin="round" stroke="rgb(0%, 0%, 0%)" stroke-opacity="1" stroke-miterlimit="10" d="M 300.011719 217.28125 L 450.421875 217.28125 "/>
<path fill="none" stroke-width="1.5" stroke-linecap="round" stroke-linejoin="round" stroke="rgb(0%, 0%, 0%)" stroke-opacity="1" stroke-miterlimit="10" d="M 300.011719 148.480469 L 450.421875 148.480469 "/>
<path fill="none" stroke-width="1.5" stroke-linecap="round" stroke-linejoin="round" stroke="rgb(0%, 0%, 0%)" stroke-opacity="1" stroke-miterlimit="10" d="M 149.605469 320.480469 L 300.011719 320.480469 "/>
<path fill="none" stroke-width="1.5" stroke-linecap="round" stroke-linejoin="round" stroke="rgb(0%, 0%, 0%)" stroke-opacity="1" stroke-miterlimit="10" d="M 300.011719 354.878906 L 450.421875 354.878906 "/>
<path fill="none" stroke-width="1.5" stroke-linecap="round" stroke-linejoin="round" stroke="rgb(0%, 0%, 0%)" stroke-opacity="1" stroke-miterlimit="10" d="M 300.011719 286.078125 L 450.421875 286.078125 "/>
<path fill="none" stroke-width="1.5" stroke-linecap="round" stroke-linejoin="round" stroke="rgb(0%, 0%, 0%)" stroke-opacity="1" stroke-miterlimit="10" d="M 149.605469 320.480469 L 149.605469 182.878906 "/>
<path fill="none" stroke-width="1.5" stroke-linecap="round" stroke-linejoin="round" stroke="rgb(0%, 0%, 0%)" stroke-opacity="1" stroke-miterlimit="10" d="M 300.011719 217.28125 L 300.011719 148.480469 "/>
<path fill="none" stroke-width="1.5" stroke-linecap="round" stroke-linejoin="round" stroke="rgb(0%, 0%, 0%)" stroke-opacity="1" stroke-miterlimit="10" d="M 300.011719 354.878906 L 300.011719 286.078125 "/>
<path fill="none" stroke-width="1.5" stroke-linecap="round" stroke-linejoin="round" stroke="rgb(0%, 0%, 0%)" stroke-opacity="1" stroke-miterlimit="10" d="M 134.5625 169.121094 L 284.972656 169.121094 "/>
<path fill="none" stroke-width="1.5" stroke-linecap="round" stroke-linejoin="round" stroke="rgb(0%, 0%, 0%)" stroke-opacity="1" stroke-miterlimit="10" d="M 284.972656 203.519531 L 450.421875 203.519531 "/>
<path fill="none" stroke-width="1.5" stroke-linecap="round" stroke-linejoin="round" stroke="rgb(0%, 0%, 0%)" stroke-opacity="1" stroke-miterlimit="10" d="M 284.972656 134.71875 L 450.421875 134.71875 "/>
<path fill="none" stroke-width="1.5" stroke-linecap="round" stroke-linejoin="round" stroke="rgb(0%, 0%, 0%)" stroke-opacity="1" stroke-miterlimit="10" d="M 134.5625 306.71875 L 300.011719 306.71875 "/>
<path fill="none" stroke-width="1.5" stroke-linecap="round" stroke-linejoin="round" stroke="rgb(0%, 0%, 0%)" stroke-opacity="1" stroke-miterlimit="10" d="M 300.011719 341.121094 L 450.421875 341.121094 "/>
<path fill="none" stroke-width="1.5" stroke-linecap="round" stroke-linejoin="round" stroke="rgb(0%, 0%, 0%)" stroke-opacity="1" stroke-miterlimit="10" d="M 300.011719 272.320312 L 450.421875 272.320312 "/>
<path fill="none" stroke-width="1.5" stroke-linecap="round" stroke-linejoin="round" stroke="rgb(0%, 0%, 0%)" stroke-opacity="1" stroke-miterlimit="10" d="M 134.5625 306.71875 L 134.5625 169.121094 "/>
<path fill="none" stroke-width="1.5" stroke-linecap="round" stroke-linejoin="round" stroke="rgb(0%, 0%, 0%)" stroke-opacity="1" stroke-miterlimit="10" d="M 284.972656 203.519531 L 284.972656 134.71875 "/>
<path fill="none" stroke-width="1.5" stroke-linecap="round" stroke-linejoin="round" stroke="rgb(0%, 0%, 0%)" stroke-opacity="1" stroke-miterlimit="10" d="M 300.011719 341.121094 L 300.011719 272.320312 "/>
<path fill="none" stroke-width="0.75" stroke-linecap="round" stroke-linejoin="round" stroke="rgb(0%, 0%, 0%)" stroke-opacity="1" stroke-miterlimit="10" d="M 74.398438 430.558594 L 450.421875 430.558594 "/>
<path fill="none" stroke-width="0.75" stroke-linecap="round" stroke-linejoin="round" stroke="rgb(0%, 0%, 0%)" stroke-opacity="1" stroke-miterlimit="10" d="M 74.398438 430.558594 L 74.398438 437.761719 "/>
<path fill="none" stroke-width="0.75" stroke-linecap="round" stroke-linejoin="round" stroke="rgb(0%, 0%, 0%)" stroke-opacity="1" stroke-miterlimit="10" d="M 149.605469 430.558594 L 149.605469 437.761719 "/>
<path fill="none" stroke-width="0.75" stroke-linecap="round" stroke-linejoin="round" stroke="rgb(0%, 0%, 0%)" stroke-opacity="1" stroke-miterlimit="10" d="M 224.808594 430.558594 L 224.808594 437.761719 "/>
<path fill="none" stroke-width="0.75" stroke-linecap="round" stroke-linejoin="round" stroke="rgb(0%, 0%, 0%)" stroke-opacity="1" stroke-miterlimit="10" d="M 300.011719 430.558594 L 300.011719 437.761719 "/>
<path fill="none" stroke-width="0.75" stroke-linecap="round" stroke-linejoin="round" stroke="rgb(0%, 0%, 0%)" stroke-opacity="1" stroke-miterlimit="10" d="M 375.21875 430.558594 L 375.21875 437.761719 "/>
<path fill="none" stroke-width="0.75" stroke-linecap="round" stroke-linejoin="round" stroke="rgb(0%, 0%, 0%)" stroke-opacity="1" stroke-miterlimit="10" d="M 450.421875 430.558594 L 450.421875 437.761719 "/>
<g fill="rgb(0%, 0%, 0%)" fill-opacity="1">
<use xlink:href="#glyph-1-0" x="67.898438" y="456.477539"/>
<use xlink:href="#glyph-1-1" x="72.898438" y="456.477539"/>
<use xlink:href="#glyph-1-2" x="75.898438" y="456.477539"/>
</g>
<g fill="rgb(0%, 0%, 0%)" fill-opacity="1">
<use xlink:href="#glyph-1-0" x="147.105469" y="456.477539"/>
</g>
<g fill="rgb(0%, 0%, 0%)" fill-opacity="1">
<use xlink:href="#glyph-1-3" x="218.308594" y="456.477539"/>
<use xlink:href="#glyph-1-1" x="223.308594" y="456.477539"/>
<use xlink:href="#glyph-1-2" x="226.308594" y="456.477539"/>
</g>
<g fill="rgb(0%, 0%, 0%)" fill-opacity="1">
<use xlink:href="#glyph-1-3" x="297.511719" y="456.477539"/>
</g>
<g fill="rgb(0%, 0%, 0%)" fill-opacity="1">
<use xlink:href="#glyph-1-4" x="368.71875" y="456.477539"/>
<use xlink:href="#glyph-1-1" x="373.71875" y="456.477539"/>
<use xlink:href="#glyph-1-2" x="376.71875" y="456.477539"/>
</g>
<g fill="rgb(0%, 0%, 0%)" fill-opacity="1">
<use xlink:href="#glyph-1-4" x="447.921875" y="456.477539"/>
</g>
</svg>
