<?xml version="1.0" encoding="UTF-8"?>
<svg xmlns="http://www.w3.org/2000/svg" xmlns:xlink="http://www.w3.org/1999/xlink" width="504pt" height="504pt" viewBox="0 0 504 504">
<defs>
<g>
<g id="glyph-0-0">
<path d="M 4.390625 -6.28125 L 3.328125 -6.28125 L 3.703125 -8.015625 L 2.6875 -8.015625 L 2.3125 -6.28125 L 1.46875 -6.28125 L 1.296875 -5.484375 L 2.140625 -5.484375 L 1.203125 -1.046875 C 1.171875 -0.921875 1.15625 -0.796875 1.15625 -0.671875 C 1.15625 -0.1875 1.375 0.078125 1.84375 0.21875 C 1.96875 0.25 2.09375 0.28125 2.234375 0.28125 C 2.484375 0.28125 2.828125 0.234375 3.015625 0.1875 L 3.203125 -0.6875 C 2.8125 -0.59375 2.78125 -0.59375 2.625 -0.59375 C 2.40625 -0.59375 2.25 -0.671875 2.203125 -0.828125 C 2.203125 -0.859375 2.203125 -0.875 2.203125 -0.90625 C 2.203125 -0.953125 2.203125 -1.015625 2.21875 -1.078125 L 3.15625 -5.484375 L 4.21875 -5.484375 Z M 4.390625 -6.28125 "/>
</g>
<g id="glyph-0-1">
<path d="M 4.4375 -6.234375 L 3.109375 0 L 4.15625 0 L 6.015625 -8.671875 L 5.3125 -8.671875 C 4.6875 -7.375 4.421875 -7.21875 2.6875 -6.984375 L 2.53125 -6.234375 Z M 4.4375 -6.234375 "/>
</g>
<g id="glyph-0-2">
<path d="M 6.28125 -1.046875 L 1.765625 -1.046875 C 1.9375 -1.625 2.625 -2.25 3.734375 -2.8125 L 5.078125 -3.53125 C 6.140625 -4.078125 6.796875 -4.65625 7.15625 -5.375 C 7.359375 -5.765625 7.46875 -6.1875 7.46875 -6.59375 C 7.46875 -7.53125 6.9375 -8.296875 6.125 -8.546875 C 5.828125 -8.625 5.515625 -8.671875 5.171875 -8.671875 C 3.328125 -8.671875 2.265625 -7.734375 1.78125 -5.671875 L 2.84375 -5.671875 C 2.984375 -6.21875 3.125 -6.59375 3.34375 -6.90625 C 3.71875 -7.4375 4.328125 -7.75 5.03125 -7.75 C 5.875 -7.75 6.40625 -7.234375 6.40625 -6.4375 C 6.40625 -5.65625 5.828125 -4.90625 4.828125 -4.390625 L 3.578125 -3.75 C 2.5625 -3.234375 1.75 -2.625 1.28125 -2.046875 C 0.921875 -1.578125 0.78125 -1.265625 0.40625 -0.015625 L 6.0625 -0.015625 Z M 6.28125 -1.046875 "/>
</g>
<g id="glyph-0-3">
<path d="M 3.5 -3.984375 C 3.75 -4.015625 3.875 -4.015625 4.046875 -4.015625 C 4.953125 -4.015625 5.515625 -3.671875 5.609375 -3.0625 C 5.609375 -3.015625 5.609375 -2.953125 5.609375 -2.890625 C 5.609375 -1.578125 4.6875 -0.640625 3.34375 -0.640625 C 2.53125 -0.640625 2.015625 -1.046875 1.9375 -1.71875 C 1.921875 -1.78125 1.921875 -1.828125 1.921875 -1.890625 C 1.921875 -2.0625 1.9375 -2.203125 1.984375 -2.515625 L 0.921875 -2.515625 C 0.875 -2.140625 0.859375 -1.96875 0.859375 -1.765625 C 0.859375 -0.4375 1.6875 0.28125 3.171875 0.28125 C 4.25 0.28125 5.15625 -0.09375 5.78125 -0.78125 C 6.328125 -1.375 6.671875 -2.25 6.671875 -3.046875 C 6.671875 -3.75 6.421875 -4.140625 5.75 -4.484375 C 6.765625 -5.078125 7.21875 -5.8125 7.21875 -6.890625 C 7.21875 -7.6875 6.75 -8.296875 5.96875 -8.546875 C 5.6875 -8.625 5.375 -8.671875 5.046875 -8.671875 C 4.0625 -8.671875 3.203125 -8.3125 2.609375 -7.640625 C 2.265625 -7.234375 2.046875 -6.765625 1.8125 -5.875 L 2.875 -5.875 C 3.109375 -6.921875 3.484375 -7.421875 4.21875 -7.65625 C 4.421875 -7.71875 4.65625 -7.75 4.890625 -7.75 C 5.6875 -7.75 6.171875 -7.359375 6.171875 -6.703125 C 6.171875 -6.21875 6.015625 -5.75 5.765625 -5.453125 C 5.421875 -5.078125 4.796875 -4.890625 3.90625 -4.890625 L 3.703125 -4.890625 Z M 3.5 -3.984375 "/>
</g>
<g id="glyph-0-4">
<path d="M 4.359375 -2.09375 L 3.90625 0 L 4.96875 0 L 5.40625 -2.09375 L 6.6875 -2.09375 L 6.890625 -3.03125 L 5.609375 -3.03125 L 6.8125 -8.671875 L 6.03125 -8.671875 L 1.015625 -3.203125 L 0.765625 -2.09375 Z M 4.5625 -3.03125 L 1.90625 -3.03125 L 5.359375 -6.84375 Z M 4.5625 -3.03125 "/>
</g>
<g id="glyph-0-5">
<path d="M 7.546875 -8.515625 L 3.109375 -8.515625 L 1.484375 -3.875 L 2.453125 -3.875 C 3.1875 -4.53125 3.53125 -4.6875 4.234375 -4.6875 C 4.78125 -4.6875 5.25 -4.484375 5.484375 -4.15625 C 5.65625 -3.90625 5.75 -3.59375 5.75 -3.234375 C 5.75 -1.734375 4.765625 -0.640625 3.390625 -0.640625 C 2.4375 -0.640625 1.9375 -1.125 1.890625 -2.09375 L 0.84375 -2.09375 L 0.84375 -1.828125 C 0.84375 -1.375 0.90625 -1.015625 1.0625 -0.75 C 1.3125 -0.3125 1.78125 0.03125 2.359375 0.171875 C 2.640625 0.234375 2.9375 0.28125 3.25 0.28125 C 4.375 0.28125 5.265625 -0.1875 5.96875 -1.109375 C 6.5 -1.796875 6.796875 -2.671875 6.796875 -3.546875 C 6.796875 -4.421875 6.359375 -5.109375 5.609375 -5.40625 C 5.296875 -5.546875 4.9375 -5.609375 4.578125 -5.609375 C 4 -5.609375 3.484375 -5.453125 2.890625 -5.09375 L 3.734375 -7.46875 L 7.328125 -7.46875 Z M 7.546875 -8.515625 "/>
</g>
<g id="glyph-1-0">
<path d="M 6.421875 -0.59375 C 6.3125 -0.5625 6.265625 -0.5625 6.203125 -0.5625 C 5.859375 -0.5625 5.65625 -0.75 5.65625 -1.0625 L 5.65625 -4.75 C 5.65625 -5.875 4.84375 -6.46875 3.296875 -6.46875 C 2.375 -6.46875 1.640625 -6.203125 1.21875 -5.734375 C 0.921875 -5.40625 0.796875 -5.046875 0.78125 -4.421875 L 1.78125 -4.421875 C 1.875 -5.203125 2.328125 -5.546875 3.265625 -5.546875 C 4.171875 -5.546875 4.671875 -5.203125 4.671875 -4.609375 L 4.671875 -4.34375 C 4.65625 -3.90625 4.4375 -3.75 3.625 -3.640625 C 2.203125 -3.46875 1.984375 -3.421875 1.609375 -3.265625 C 0.875 -2.953125 0.5 -2.40625 0.5 -1.578125 C 0.5 -0.4375 1.296875 0.28125 2.5625 0.28125 C 3.359375 0.28125 4 0 4.703125 -0.640625 C 4.78125 0 5.09375 0.28125 5.734375 0.28125 C 5.953125 0.28125 6.078125 0.25 6.421875 0.171875 Z M 4.671875 -1.984375 C 4.671875 -1.640625 4.578125 -1.4375 4.265625 -1.15625 C 3.859375 -0.796875 3.375 -0.59375 2.78125 -0.59375 C 2 -0.59375 1.546875 -0.96875 1.546875 -1.609375 C 1.546875 -2.265625 1.984375 -2.609375 3.0625 -2.765625 C 4.125 -2.90625 4.328125 -2.953125 4.671875 -3.109375 Z M 4.671875 -1.984375 "/>
</g>
<g id="glyph-1-1">
<path d="M 4.84375 -6.28125 L 4.84375 -5.375 C 4.34375 -6.125 3.796875 -6.46875 3 -6.46875 C 1.46875 -6.46875 0.421875 -5.046875 0.421875 -3.03125 C 0.421875 -1.984375 0.671875 -1.21875 1.21875 -0.578125 C 1.6875 -0.03125 2.28125 0.28125 2.921875 0.28125 C 3.6875 0.28125 4.21875 -0.0625 4.75 -0.859375 L 4.75 -0.53125 C 4.75 1.15625 4.28125 1.78125 3.03125 1.78125 C 2.1875 1.78125 1.734375 1.4375 1.640625 0.71875 L 0.625 0.71875 C 0.71875 1.890625 1.640625 2.609375 3.015625 2.609375 C 3.9375 2.609375 4.703125 2.3125 5.109375 1.8125 C 5.59375 1.21875 5.765625 0.4375 5.765625 -1.03125 L 5.765625 -6.28125 Z M 3.09375 -5.546875 C 4.15625 -5.546875 4.75 -4.65625 4.75 -3.0625 C 4.75 -1.53125 4.140625 -0.640625 3.09375 -0.640625 C 2.0625 -0.640625 1.46875 -1.546875 1.46875 -3.09375 C 1.46875 -4.625 2.0625 -5.546875 3.09375 -5.546875 Z M 3.09375 -5.546875 "/>
</g>
<g id="glyph-1-2">
<path d="M 5.65625 -4.171875 C 5.609375 -4.78125 5.46875 -5.1875 5.234375 -5.53125 C 4.796875 -6.125 4.046875 -6.46875 3.171875 -6.46875 C 1.46875 -6.46875 0.375 -5.125 0.375 -3.03125 C 0.375 -1.015625 1.453125 0.28125 3.15625 0.28125 C 4.65625 0.28125 5.609375 -0.625 5.71875 -2.15625 L 4.71875 -2.15625 C 4.546875 -1.15625 4.03125 -0.640625 3.1875 -0.640625 C 2.078125 -0.640625 1.421875 -1.546875 1.421875 -3.03125 C 1.421875 -4.609375 2.0625 -5.546875 3.15625 -5.546875 C 4 -5.546875 4.53125 -5.046875 4.640625 -4.171875 Z M 5.65625 -4.171875 "/>
</g>
<g id="glyph-1-3">
<path d="M 3.046875 -6.28125 L 2.015625 -6.28125 L 2.015625 -8.015625 L 1.015625 -8.015625 L 1.015625 -6.28125 L 0.171875 -6.28125 L 0.171875 -5.46875 L 1.015625 -5.46875 L 1.015625 -0.71875 C 1.015625 -0.078125 1.453125 0.28125 2.234375 0.28125 C 2.5 0.28125 2.71875 0.25 3.046875 0.1875 L 3.046875 -0.640625 C 2.90625 -0.609375 2.765625 -0.59375 2.5625 -0.59375 C 2.140625 -0.59375 2.015625 -0.71875 2.015625 -1.15625 L 2.015625 -5.46875 L 3.046875 -5.46875 Z M 3.046875 -6.28125 "/>
</g>
<g id="glyph-1-4">
<path d="M 3.40625 -3.75 L 0.546875 -3.75 L 0.546875 -2.875 L 3.40625 -2.875 Z M 3.40625 -3.75 "/>
</g>
<g id="glyph-1-5">
<path d="M 6.078125 -1.046875 L 1.59375 -1.046875 C 1.703125 -1.765625 2.09375 -2.21875 3.125 -2.859375 L 4.328125 -3.53125 C 5.515625 -4.1875 6.125 -5.078125 6.125 -6.140625 C 6.125 -6.859375 5.84375 -7.53125 5.34375 -8 C 4.84375 -8.453125 4.21875 -8.671875 3.40625 -8.671875 C 2.328125 -8.671875 1.53125 -8.296875 1.0625 -7.546875 C 0.75 -7.09375 0.625 -6.546875 0.59375 -5.671875 L 1.65625 -5.671875 C 1.6875 -6.265625 1.765625 -6.609375 1.90625 -6.90625 C 2.1875 -7.421875 2.734375 -7.75 3.375 -7.75 C 4.328125 -7.75 5.046875 -7.0625 5.046875 -6.125 C 5.046875 -5.421875 4.65625 -4.828125 3.90625 -4.390625 L 2.796875 -3.75 C 1.015625 -2.71875 0.5 -1.90625 0.40625 -0.015625 L 6.078125 -0.015625 Z M 6.078125 -1.046875 "/>
</g>
<g id="glyph-1-6">
<path d="M 3.109375 -6.1875 L 3.109375 0 L 4.15625 0 L 4.15625 -8.671875 L 3.46875 -8.671875 C 3.09375 -7.34375 2.859375 -7.15625 1.21875 -6.953125 L 1.21875 -6.1875 Z M 3.109375 -6.1875 "/>
</g>
<g id="glyph-1-7">
</g>
</g>
<clipPath id="clip-0">
<path clip-rule="nonzero" d="M 59.039062 344 L 94 344 L 94 430.558594 L 59.039062 430.558594 Z M 59.039062 344 "/>
</clipPath>
<clipPath id="clip-1">
<path clip-rule="nonzero" d="M 59.039062 343 L 94 343 L 94 430.558594 L 59.039062 430.558594 Z M 59.039062 343 "/>
</clipPath>
</defs>
<rect x="-50.4" y="-50.4" width="604.8" height="604.8" fill="rgb(100%, 100%, 100%)" fill-opacity="1"/>
<path fill="none" stroke-width="0.75" stroke-linecap="round" stroke-linejoin="round" stroke="rgb(0%, 0%, 0%)" stroke-opacity="1" stroke-miterlimit="10" d="M 74.398438 309.300781 L 197.816406 309.300781 "/>
<path fill="none" stroke-width="0.75" stroke-linecap="round" stroke-linejoin="round" stroke="rgb(0%, 0%, 0%)" stroke-opacity="1" stroke-miterlimit="10" d="M 197.816406 373.800781 L 321.230469 373.800781 "/>
<path fill="none" stroke-width="0.75" stroke-linecap="round" stroke-linejoin="round" stroke="rgb(0%, 0%, 0%)" stroke-opacity="1" stroke-miterlimit="10" d="M 321.230469 416.800781 L 444.644531 416.800781 "/>
<path fill="none" stroke-width="0.75" stroke-linecap="round" stroke-linejoin="round" stroke="rgb(0%, 0%, 0%)" stroke-opacity="1" stroke-miterlimit="10" d="M 321.230469 330.800781 L 444.644531 330.800781 "/>
<path fill="none" stroke-width="0.75" stroke-linecap="round" stroke-linejoin="round" stroke="rgb(0%, 0%, 0%)" stroke-opacity="1" stroke-miterlimit="10" d="M 197.816406 244.800781 L 444.644531 244.800781 "/>
<path fill="none" stroke-width="0.75" stroke-linecap="round" stroke-linejoin="round" stroke="rgb(0%, 0%, 0%)" stroke-opacity="1" stroke-miterlimit="10" d="M 74.398438 115.800781 L 259.523438 115.800781 "/>
<path fill="none" stroke-width="0.75" stroke-linecap="round" stroke-linejoin="round" stroke="rgb(0%, 0%, 0%)" stroke-opacity="1" stroke-miterlimit="10" d="M 259.523438 158.800781 L 444.644531 158.800781 "/>
<path fill="none" stroke-width="0.75" stroke-linecap="round" stroke-linejoin="round" stroke="rgb(0%, 0%, 0%)" stroke-opacity="1" stroke-miterlimit="10" d="M 259.523438 72.800781 L 444.644531 72.800781 "/>
<path fill="none" stroke-width="0.75" stroke-linecap="round" stroke-linejoin="round" stroke="rgb(0%, 0%, 0%)" stroke-opacity="1" stroke-miterlimit="10" d="M 74.398438 309.300781 L 74.398438 115.800781 "/>
<path fill="none" stroke-width="0.75" stroke-linecap="round" stroke-linejoin="round" stroke="rgb(0%, 0%, 0%)" stroke-opacity="1" stroke-miterlimit="10" d="M 197.816406 373.800781 L 197.816406 244.800781 "/>
<path fill="none" stroke-width="0.75" stroke-linecap="round" stroke-linejoin="round" stroke="rgb(0%, 0%, 0%)" stroke-opacity="1" stroke-miterlimit="10" d="M 321.230469 416.800781 L 321.230469 330.800781 "/>
<path fill="none" stroke-width="0.75" stroke-linecap="round" stroke-linejoin="round" stroke="rgb(0%, 0%, 0%)" stroke-opacity="1" stroke-miterlimit="10" d="M 259.523438 158.800781 L 259.523438 72.800781 "/>
<g fill="rgb(0%, 0%, 0%)" fill-opacity="1">
<use xlink:href="#glyph-0-0" x="449.25" y="420.600586"/>
<use xlink:href="#glyph-0-1" x="452.25" y="420.600586"/>
</g>
<g fill="rgb(0%, 0%, 0%)" fill-opacity="1">
<use xlink:href="#glyph-0-0" x="449.25" y="334.600586"/>
<use xlink:href="#glyph-0-2" x="452.25" y="334.600586"/>
</g>
<g fill="rgb(0%, 0%, 0%)" fill-opacity="1">
<use xlink:href="#glyph-0-0" x="449.25" y="248.600586"/>
<use xlink:href="#glyph-0-3" x="452.25" y="248.600586"/>
</g>
<g fill="rgb(0%, 0%, 0%)" fill-opacity="1">
<use xlink:href="#glyph-0-0" x="449.25" y="162.600586"/>
<use xlink:href="#glyph-0-4" x="452.25" y="162.600586"/>
</g>
<g fill="rgb(0%, 0%, 0%)" fill-opacity="1">
<use xlink:href="#glyph-0-0" x="449.25" y="76.600586"/>
<use xlink:href="#glyph-0-5" x="452.25" y="76.600586"/>
</g>
<path fill-rule="nonzero" fill="rgb(100%, 0%, 0%)" fill-opacity="1" stroke-width="0.75" stroke-linecap="round" stroke-linejoin="round" stroke="rgb(0%, 0%, 0%)" stroke-opacity="1" stroke-miterlimit="10" d="M 448.792969 416.800781 C 448.792969 422.328125 440.496094 422.328125 440.496094 416.800781 C 440.496094 411.269531 448.792969 411.269531 448.792969 416.800781 "/>
<path fill-rule="nonzero" fill="rgb(100%, 0%, 0%)" fill-opacity="1" stroke-width="0.75" stroke-linecap="round" stroke-linejoin="round" stroke="rgb(0%, 0%, 0%)" stroke-opacity="1" stroke-miterlimit="10" d="M 448.792969 330.800781 C 448.792969 336.328125 440.496094 336.328125 440.496094 330.800781 C 440.496094 325.269531 448.792969 325.269531 448.792969 330.800781 "/>
<path fill-rule="nonzero" fill="rgb(0%, 0%, 100%)" fill-opacity="1" stroke-width="0.75" stroke-linecap="round" stroke-linejoin="round" stroke="rgb(0%, 0%, 0%)" stroke-opacity="1" stroke-miterlimit="10" d="M 448.792969 244.800781 C 448.792969 250.328125 440.496094 250.328125 440.496094 244.800781 C 440.496094 239.269531 448.792969 239.269531 448.792969 244.800781 "/>
<path fill-rule="nonzero" fill="rgb(0%, 0%, 100%)" fill-opacity="1" stroke-width="0.75" stroke-linecap="round" stroke-linejoin="round" stroke="rgb(0%, 0%, 0%)" stroke-opacity="1" stroke-miterlimit="10" d="M 448.792969 158.800781 C 448.792969 164.328125 440.496094 164.328125 440.496094 158.800781 C 440.496094 153.269531 448.792969 153.269531 448.792969 158.800781 "/>
<path fill-rule="nonzero" fill="rgb(0%, 0%, 100%)" fill-opacity="1" stroke-width="0.75" stroke-linecap="round" stroke-linejoin="round" stroke="rgb(0%, 0%, 0%)" stroke-opacity="1" stroke-miterlimit="10" d="M 448.792969 72.800781 C 448.792969 78.328125 440.496094 78.328125 440.496094 72.800781 C 440.496094 67.269531 448.792969 67.269531 448.792969 72.800781 "/>
<path fill-rule="nonzero" fill="rgb(100%, 0%, 0%)" fill-opacity="1" stroke-width="0.75" stroke-linecap="round" stroke-linejoin="round" stroke="rgb(0%, 0%, 0%)" stroke-opacity="1" stroke-miterlimit="10" d="M 78.546875 212.550781 L 78.546875 212.417969 L 78.539062 212.28125 L 78.527344 212.148438 L 78.511719 212.015625 L 78.492188 211.882812 L 78.46875 211.75 L 78.441406 211.621094 L 78.410156 211.492188 L 78.375 211.363281 L 78.289062 211.105469 L 78.238281 210.984375 L 78.1875 210.859375 L 78.070312 210.617188 L 78.003906 210.5 L 77.9375 210.386719 L 77.867188 210.273438 L 77.789062 210.160156 L 77.710938 210.054688 L 77.628906 209.949219 L 77.542969 209.84375 L 77.363281 209.648438 L 77.167969 209.460938 L 76.964844 209.289062 L 76.746094 209.132812 L 76.636719 209.058594 L 76.523438 208.988281 L 76.40625 208.921875 L 76.289062 208.859375 L 76.167969 208.796875 L 76.046875 208.742188 L 75.921875 208.691406 L 75.796875 208.644531 L 75.667969 208.601562 L 75.542969 208.5625 L 75.414062 208.527344 L 75.28125 208.496094 L 75.148438 208.472656 L 75.019531 208.449219 L 74.886719 208.429688 L 74.753906 208.417969 L 74.617188 208.410156 L 74.484375 208.402344 L 74.351562 208.402344 L 74.21875 208.40625 L 74.082031 208.414062 L 74.398438 212.550781 Z M 78.546875 212.550781 "/>
<path fill-rule="nonzero" fill="rgb(100%, 100%, 0%)" fill-opacity="1" stroke-width="0.75" stroke-linecap="round" stroke-linejoin="round" stroke="rgb(0%, 0%, 0%)" stroke-opacity="1" stroke-miterlimit="10" d="M 74.082031 208.414062 L 73.949219 208.425781 L 73.683594 208.464844 L 73.417969 208.519531 L 73.289062 208.554688 L 73.160156 208.59375 L 73.03125 208.636719 L 72.90625 208.683594 L 72.78125 208.734375 L 72.65625 208.789062 L 72.535156 208.847656 L 72.414062 208.910156 L 72.296875 208.976562 L 72.070312 209.117188 L 71.960938 209.195312 L 71.851562 209.277344 L 71.746094 209.363281 L 71.644531 209.449219 L 71.449219 209.636719 L 71.355469 209.734375 L 71.265625 209.832031 L 71.179688 209.9375 L 71.097656 210.042969 L 71.015625 210.152344 L 70.941406 210.261719 L 70.867188 210.375 L 70.734375 210.609375 L 70.671875 210.730469 L 70.617188 210.851562 L 70.5625 210.976562 L 70.46875 211.226562 L 70.429688 211.355469 L 70.390625 211.488281 L 70.359375 211.617188 L 70.332031 211.75 L 70.308594 211.882812 L 70.289062 212.015625 L 70.273438 212.148438 L 70.261719 212.285156 L 74.398438 212.550781 Z M 74.082031 208.414062 "/>
<path fill-rule="nonzero" fill="rgb(0%, 100%, 0%)" fill-opacity="1" stroke-width="0.75" stroke-linecap="round" stroke-linejoin="round" stroke="rgb(0%, 0%, 0%)" stroke-opacity="1" stroke-miterlimit="10" d="M 70.261719 212.285156 L 70.253906 212.417969 L 70.253906 212.6875 L 70.261719 212.824219 L 70.273438 212.957031 L 70.289062 213.089844 L 70.308594 213.222656 L 70.332031 213.355469 L 70.359375 213.488281 L 70.394531 213.617188 L 70.429688 213.75 L 70.472656 213.878906 L 70.515625 214.003906 L 70.617188 214.253906 L 70.675781 214.375 L 70.738281 214.496094 L 70.800781 214.613281 L 70.871094 214.730469 L 70.945312 214.84375 L 71.019531 214.953125 L 71.101562 215.0625 L 71.183594 215.167969 L 71.269531 215.269531 L 71.359375 215.371094 L 71.453125 215.46875 L 71.550781 215.5625 L 71.648438 215.652344 L 71.75 215.742188 L 71.855469 215.824219 L 71.964844 215.90625 L 72.074219 215.984375 L 72.1875 216.058594 L 72.304688 216.128906 L 72.421875 216.195312 L 72.539062 216.257812 L 72.660156 216.316406 L 72.785156 216.371094 L 72.910156 216.421875 L 73.035156 216.464844 L 73.164062 216.507812 L 73.292969 216.546875 L 73.425781 216.582031 L 73.554688 216.609375 L 74.398438 212.550781 Z M 70.261719 212.285156 "/>
<path fill-rule="nonzero" fill="rgb(0%, 0%, 100%)" fill-opacity="1" stroke-width="0.75" stroke-linecap="round" stroke-linejoin="round" stroke="rgb(0%, 0%, 0%)" stroke-opacity="1" stroke-miterlimit="10" d="M 73.554688 216.609375 L 73.6875 216.636719 L 73.820312 216.65625 L 73.953125 216.671875 L 74.085938 216.683594 L 74.21875 216.691406 L 74.351562 216.695312 L 74.488281 216.695312 L 74.621094 216.691406 L 74.753906 216.683594 L 75.019531 216.652344 L 75.152344 216.628906 L 75.285156 216.601562 L 75.414062 216.570312 L 75.542969 216.535156 L 75.671875 216.496094 L 75.796875 216.453125 L 75.921875 216.40625 L 76.046875 216.355469 L 76.167969 216.300781 L 76.289062 216.242188 L 76.40625 216.179688 L 76.523438 216.113281 L 76.636719 216.042969 L 76.75 215.96875 L 76.859375 215.890625 L 76.964844 215.808594 L 77.070312 215.722656 L 77.167969 215.636719 L 77.269531 215.546875 L 77.363281 215.453125 L 77.457031 215.355469 L 77.628906 215.152344 L 77.710938 215.046875 L 77.867188 214.828125 L 77.9375 214.714844 L 78.007812 214.597656 L 78.070312 214.480469 L 78.128906 214.363281 L 78.1875 214.238281 L 78.238281 214.117188 L 78.289062 213.992188 L 78.332031 213.867188 L 78.375 213.738281 L 78.410156 213.609375 L 78.441406 213.480469 L 78.46875 213.347656 L 78.492188 213.214844 L 78.511719 213.085938 L 78.527344 212.949219 L 78.539062 212.816406 L 78.546875 212.683594 L 78.546875 212.550781 L 74.398438 212.550781 Z M 73.554688 216.609375 "/>
<path fill="none" stroke-width="0.75" stroke-linecap="round" stroke-linejoin="round" stroke="rgb(0%, 0%, 0%)" stroke-opacity="1" stroke-miterlimit="10" d="M 78.546875 212.550781 L 74.398438 212.550781 Z M 78.546875 212.550781 "/>
<path fill-rule="nonzero" fill="rgb(100%, 0%, 0%)" fill-opacity="1" stroke-width="0.75" stroke-linecap="round" stroke-linejoin="round" stroke="rgb(0%, 0%, 0%)" stroke-opacity="1" stroke-miterlimit="10" d="M 201.960938 309.300781 L 201.960938 309.167969 L 201.953125 309.03125 L 201.941406 308.898438 L 201.910156 308.632812 L 201.882812 308.503906 L 201.855469 308.371094 L 201.824219 308.242188 L 201.789062 308.113281 L 201.75 307.984375 L 201.65625 307.734375 L 201.601562 307.609375 L 201.546875 307.488281 L 201.421875 307.253906 L 201.355469 307.136719 L 201.28125 307.023438 L 201.207031 306.914062 L 201.128906 306.804688 L 201.046875 306.699219 L 200.960938 306.597656 L 200.871094 306.496094 L 200.78125 306.398438 L 200.683594 306.304688 L 200.585938 306.214844 L 200.382812 306.042969 L 200.273438 305.960938 L 200.167969 305.882812 L 200.054688 305.808594 L 199.941406 305.738281 L 199.824219 305.671875 L 199.707031 305.609375 L 199.585938 305.550781 L 199.464844 305.496094 L 199.339844 305.445312 L 199.214844 305.398438 L 199.089844 305.355469 L 198.960938 305.316406 L 198.832031 305.28125 L 198.703125 305.25 L 198.570312 305.222656 L 198.4375 305.199219 L 198.308594 305.183594 L 198.171875 305.167969 L 197.90625 305.152344 L 197.773438 305.152344 L 197.640625 305.15625 L 197.503906 305.164062 L 197.371094 305.175781 L 197.238281 305.191406 L 197.105469 305.214844 L 196.976562 305.238281 L 196.84375 305.269531 L 196.714844 305.300781 L 196.585938 305.339844 L 196.460938 305.378906 L 196.335938 305.425781 L 196.210938 305.476562 L 196.085938 305.53125 L 195.964844 305.585938 L 195.847656 305.648438 L 195.730469 305.714844 L 197.816406 309.300781 Z M 201.960938 309.300781 "/>
<path fill-rule="nonzero" fill="rgb(100%, 100%, 0%)" fill-opacity="1" stroke-width="0.75" stroke-linecap="round" stroke-linejoin="round" stroke="rgb(0%, 0%, 0%)" stroke-opacity="1" stroke-miterlimit="10" d="M 195.730469 305.714844 L 195.613281 305.785156 L 195.5 305.859375 L 195.386719 305.9375 L 195.277344 306.019531 L 195.171875 306.101562 L 195.070312 306.191406 L 194.96875 306.285156 L 194.871094 306.378906 L 194.777344 306.476562 L 194.6875 306.578125 L 194.597656 306.683594 L 194.515625 306.789062 L 194.433594 306.898438 L 194.355469 307.011719 L 194.28125 307.125 L 194.214844 307.242188 L 194.148438 307.363281 L 194.085938 307.484375 L 194.027344 307.609375 L 193.925781 307.859375 L 193.878906 307.988281 L 193.839844 308.117188 L 193.769531 308.382812 L 193.742188 308.515625 L 193.71875 308.648438 L 193.699219 308.785156 L 193.683594 308.921875 L 193.675781 309.054688 L 193.667969 309.191406 L 193.667969 309.328125 L 193.671875 309.464844 L 193.679688 309.601562 L 193.691406 309.738281 L 193.707031 309.871094 L 193.726562 310.007812 L 193.753906 310.140625 L 197.816406 309.300781 Z M 195.730469 305.714844 "/>
<path fill-rule="nonzero" fill="rgb(0%, 100%, 0%)" fill-opacity="1" stroke-width="0.75" stroke-linecap="round" stroke-linejoin="round" stroke="rgb(0%, 0%, 0%)" stroke-opacity="1" stroke-miterlimit="10" d="M 193.753906 310.140625 L 193.816406 310.40625 L 193.855469 310.535156 L 193.898438 310.664062 L 193.945312 310.792969 L 193.996094 310.917969 L 194.050781 311.042969 L 194.113281 311.167969 L 194.175781 311.285156 L 194.242188 311.40625 L 194.3125 311.523438 L 194.386719 311.636719 L 194.464844 311.746094 L 194.546875 311.855469 L 194.632812 311.960938 L 194.722656 312.0625 L 194.816406 312.164062 L 194.910156 312.261719 L 195.011719 312.355469 L 195.113281 312.445312 L 195.324219 312.617188 L 195.433594 312.695312 L 195.546875 312.773438 L 195.78125 312.914062 L 195.902344 312.980469 L 196.144531 313.097656 L 196.273438 313.148438 L 196.398438 313.199219 L 196.527344 313.242188 L 196.65625 313.28125 L 196.789062 313.320312 L 196.921875 313.351562 L 197.054688 313.378906 L 197.191406 313.398438 L 197.324219 313.417969 L 197.816406 309.300781 Z M 193.753906 310.140625 "/>
<path fill-rule="nonzero" fill="rgb(0%, 0%, 100%)" fill-opacity="1" stroke-width="0.75" stroke-linecap="round" stroke-linejoin="round" stroke="rgb(0%, 0%, 0%)" stroke-opacity="1" stroke-miterlimit="10" d="M 197.324219 313.417969 L 197.457031 313.433594 L 197.59375 313.441406 L 197.726562 313.445312 L 197.863281 313.445312 L 197.996094 313.441406 L 198.132812 313.433594 L 198.265625 313.421875 L 198.398438 313.40625 L 198.664062 313.359375 L 198.796875 313.328125 L 198.925781 313.296875 L 199.054688 313.257812 L 199.183594 313.214844 L 199.308594 313.167969 L 199.433594 313.117188 L 199.558594 313.0625 L 199.679688 313.003906 L 199.796875 312.941406 L 199.914062 312.875 L 200.03125 312.804688 L 200.144531 312.730469 L 200.363281 312.574219 L 200.464844 312.488281 L 200.570312 312.402344 L 200.765625 312.214844 L 200.855469 312.117188 L 200.949219 312.019531 L 201.035156 311.914062 L 201.117188 311.808594 L 201.273438 311.589844 L 201.34375 311.476562 L 201.414062 311.359375 L 201.480469 311.242188 L 201.597656 311 L 201.652344 310.875 L 201.746094 310.625 L 201.824219 310.367188 L 201.855469 310.234375 L 201.882812 310.101562 L 201.90625 309.96875 L 201.925781 309.835938 L 201.941406 309.703125 L 201.953125 309.570312 L 201.960938 309.433594 L 201.960938 309.300781 L 197.816406 309.300781 Z M 197.324219 313.417969 "/>
<path fill="none" stroke-width="0.75" stroke-linecap="round" stroke-linejoin="round" stroke="rgb(0%, 0%, 0%)" stroke-opacity="1" stroke-miterlimit="10" d="M 201.960938 309.300781 L 197.816406 309.300781 Z M 201.960938 309.300781 "/>
<path fill-rule="nonzero" fill="rgb(100%, 0%, 0%)" fill-opacity="1" stroke-width="0.75" stroke-linecap="round" stroke-linejoin="round" stroke="rgb(0%, 0%, 0%)" stroke-opacity="1" stroke-miterlimit="10" d="M 325.378906 373.800781 L 325.375 373.667969 L 325.367188 373.535156 L 325.359375 373.40625 L 325.34375 373.273438 L 325.324219 373.144531 L 325.300781 373.015625 L 325.273438 372.886719 L 325.242188 372.757812 L 325.207031 372.628906 L 325.167969 372.503906 L 325.125 372.378906 L 325.078125 372.257812 L 325.027344 372.136719 L 324.972656 372.015625 L 324.914062 371.898438 L 324.851562 371.78125 L 324.789062 371.667969 L 324.71875 371.554688 L 324.644531 371.445312 L 324.570312 371.339844 L 324.488281 371.234375 L 324.40625 371.132812 L 324.320312 371.035156 L 324.230469 370.9375 L 324.136719 370.84375 L 324.042969 370.753906 L 323.945312 370.664062 L 323.84375 370.578125 L 323.632812 370.421875 L 323.523438 370.34375 L 323.414062 370.273438 L 323.300781 370.207031 L 323.1875 370.144531 L 323.070312 370.082031 L 322.828125 369.972656 L 322.707031 369.925781 L 322.582031 369.878906 L 322.332031 369.800781 L 322.074219 369.738281 L 321.945312 369.714844 L 321.816406 369.695312 L 321.6875 369.679688 L 321.554688 369.664062 L 321.421875 369.65625 L 321.292969 369.652344 L 321.160156 369.652344 L 321.027344 369.65625 L 320.898438 369.667969 L 320.765625 369.679688 L 320.636719 369.695312 L 320.503906 369.714844 L 320.246094 369.769531 L 320.121094 369.804688 L 319.992188 369.839844 L 319.867188 369.882812 L 319.746094 369.929688 L 319.621094 369.976562 L 319.503906 370.03125 L 319.382812 370.085938 L 319.265625 370.148438 L 319.152344 370.210938 L 319.039062 370.277344 L 318.820312 370.425781 L 318.714844 370.503906 L 318.609375 370.585938 L 318.507812 370.667969 L 318.410156 370.757812 L 318.316406 370.847656 L 318.222656 370.941406 L 318.132812 371.039062 L 318.046875 371.140625 L 317.964844 371.242188 L 317.808594 371.453125 L 317.738281 371.5625 L 317.667969 371.675781 L 317.601562 371.789062 L 317.539062 371.90625 L 317.480469 372.023438 L 317.425781 372.144531 L 317.375 372.265625 L 317.332031 372.390625 L 317.289062 372.511719 L 317.25 372.640625 L 317.214844 372.765625 L 317.183594 372.894531 L 317.15625 373.023438 L 317.132812 373.152344 L 317.113281 373.28125 L 317.089844 373.546875 L 317.085938 373.675781 L 317.082031 373.808594 L 317.085938 373.941406 L 317.089844 374.070312 L 317.101562 374.203125 L 317.117188 374.332031 L 317.136719 374.464844 L 317.160156 374.59375 L 317.1875 374.722656 L 317.21875 374.851562 L 317.253906 374.976562 L 317.292969 375.101562 L 317.335938 375.226562 L 317.382812 375.351562 L 317.433594 375.472656 L 317.488281 375.589844 L 317.546875 375.710938 L 317.609375 375.824219 L 317.675781 375.9375 L 317.746094 376.050781 L 317.820312 376.160156 L 317.894531 376.265625 L 317.976562 376.371094 L 318.058594 376.472656 L 318.144531 376.574219 L 318.234375 376.667969 L 318.328125 376.761719 L 318.425781 376.855469 L 318.523438 376.941406 L 318.625 377.027344 L 318.726562 377.105469 L 318.832031 377.183594 L 318.941406 377.257812 L 321.230469 373.800781 Z M 325.378906 373.800781 "/>
<path fill-rule="nonzero" fill="rgb(100%, 100%, 0%)" fill-opacity="1" stroke-width="0.75" stroke-linecap="round" stroke-linejoin="round" stroke="rgb(0%, 0%, 0%)" stroke-opacity="1" stroke-miterlimit="10" d="M 318.941406 377.257812 L 319.058594 377.332031 L 319.175781 377.402344 L 319.296875 377.46875 L 319.421875 377.53125 L 319.546875 377.589844 L 319.671875 377.644531 L 319.800781 377.695312 L 319.929688 377.738281 L 320.0625 377.78125 L 320.195312 377.816406 L 320.328125 377.847656 L 320.464844 377.875 L 320.601562 377.898438 L 320.738281 377.917969 L 320.875 377.933594 L 321.011719 377.941406 L 321.148438 377.945312 L 321.289062 377.945312 L 321.425781 377.941406 L 321.5625 377.933594 L 321.699219 377.921875 L 321.230469 373.800781 Z M 318.941406 377.257812 "/>
<path fill-rule="nonzero" fill="rgb(0%, 100%, 0%)" fill-opacity="1" stroke-width="0.75" stroke-linecap="round" stroke-linejoin="round" stroke="rgb(0%, 0%, 0%)" stroke-opacity="1" stroke-miterlimit="10" d="M 321.699219 377.921875 L 321.835938 377.902344 L 321.972656 377.878906 L 322.109375 377.851562 L 322.242188 377.820312 L 322.375 377.785156 L 322.507812 377.746094 L 322.765625 377.652344 L 322.894531 377.597656 L 323.019531 377.542969 L 323.140625 377.480469 L 323.261719 377.414062 L 323.382812 377.34375 L 323.5 377.269531 L 323.613281 377.195312 L 323.726562 377.113281 L 323.9375 376.941406 L 324.042969 376.847656 L 324.140625 376.753906 L 324.238281 376.65625 L 321.230469 373.800781 Z M 321.699219 377.921875 "/>
<path fill-rule="nonzero" fill="rgb(0%, 0%, 100%)" fill-opacity="1" stroke-width="0.75" stroke-linecap="round" stroke-linejoin="round" stroke="rgb(0%, 0%, 0%)" stroke-opacity="1" stroke-miterlimit="10" d="M 324.238281 376.65625 L 324.332031 376.554688 L 324.421875 376.449219 L 324.507812 376.34375 L 324.589844 376.234375 L 324.667969 376.121094 L 324.742188 376.007812 L 324.8125 375.890625 L 324.878906 375.769531 L 324.941406 375.648438 L 325 375.523438 L 325.054688 375.398438 L 325.105469 375.273438 L 325.152344 375.144531 L 325.195312 375.015625 L 325.234375 374.882812 L 325.296875 374.617188 L 325.320312 374.480469 L 325.339844 374.347656 L 325.355469 374.210938 L 325.367188 374.074219 L 325.375 373.9375 L 325.378906 373.800781 L 321.230469 373.800781 Z M 324.238281 376.65625 "/>
<path fill="none" stroke-width="0.75" stroke-linecap="round" stroke-linejoin="round" stroke="rgb(0%, 0%, 0%)" stroke-opacity="1" stroke-miterlimit="10" d="M 325.378906 373.800781 L 321.230469 373.800781 Z M 325.378906 373.800781 "/>
<path fill-rule="nonzero" fill="rgb(100%, 0%, 0%)" fill-opacity="1" stroke-width="0.75" stroke-linecap="round" stroke-linejoin="round" stroke="rgb(0%, 0%, 0%)" stroke-opacity="1" stroke-miterlimit="10" d="M 263.667969 115.800781 L 263.667969 115.664062 L 263.660156 115.523438 L 263.648438 115.386719 L 263.632812 115.25 L 263.613281 115.117188 L 263.585938 114.980469 L 263.558594 114.847656 L 263.488281 114.582031 L 263.445312 114.449219 L 263.398438 114.320312 L 263.347656 114.195312 L 263.289062 114.066406 L 263.230469 113.945312 L 263.167969 113.824219 L 263.101562 113.703125 L 262.953125 113.46875 L 262.875 113.359375 L 262.792969 113.25 L 262.707031 113.140625 L 262.617188 113.039062 L 262.523438 112.9375 L 262.425781 112.839844 L 262.222656 112.652344 L 262.117188 112.566406 L 262.007812 112.480469 L 261.898438 112.402344 L 261.785156 112.324219 L 261.667969 112.25 L 261.546875 112.179688 L 261.304688 112.054688 L 259.523438 115.800781 Z M 263.667969 115.800781 "/>
<path fill-rule="nonzero" fill="rgb(100%, 100%, 0%)" fill-opacity="1" stroke-width="0.75" stroke-linecap="round" stroke-linejoin="round" stroke="rgb(0%, 0%, 0%)" stroke-opacity="1" stroke-miterlimit="10" d="M 261.304688 112.054688 L 261.183594 112 L 261.058594 111.949219 L 260.929688 111.898438 L 260.804688 111.855469 L 260.675781 111.816406 L 260.546875 111.78125 L 260.414062 111.75 L 260.28125 111.722656 L 260.148438 111.699219 L 259.882812 111.667969 L 259.746094 111.660156 L 259.613281 111.652344 L 259.476562 111.652344 L 259.34375 111.65625 L 259.207031 111.664062 L 259.074219 111.675781 L 258.808594 111.714844 L 258.542969 111.769531 L 258.414062 111.804688 L 258.15625 111.882812 L 258.03125 111.929688 L 257.90625 111.980469 L 257.78125 112.035156 L 257.660156 112.09375 L 257.539062 112.15625 L 257.421875 112.222656 L 257.308594 112.292969 L 257.195312 112.367188 L 257.085938 112.445312 L 256.976562 112.527344 L 259.523438 115.800781 Z M 261.304688 112.054688 "/>
<path fill-rule="nonzero" fill="rgb(0%, 100%, 0%)" fill-opacity="1" stroke-width="0.75" stroke-linecap="round" stroke-linejoin="round" stroke="rgb(0%, 0%, 0%)" stroke-opacity="1" stroke-miterlimit="10" d="M 256.976562 112.527344 L 256.871094 112.609375 L 256.769531 112.699219 L 256.671875 112.789062 L 256.574219 112.882812 L 256.480469 112.980469 L 256.390625 113.082031 L 256.304688 113.183594 L 256.222656 113.289062 L 256.140625 113.398438 L 256.066406 113.507812 L 255.992188 113.625 L 255.921875 113.738281 L 255.859375 113.855469 L 255.796875 113.976562 L 255.738281 114.097656 L 255.636719 114.347656 L 255.550781 114.605469 L 255.480469 114.863281 L 255.453125 114.996094 L 255.429688 115.128906 L 255.410156 115.261719 L 255.394531 115.394531 L 255.382812 115.53125 L 255.378906 115.664062 L 255.375 115.800781 L 255.378906 115.933594 L 255.382812 116.070312 L 255.394531 116.203125 L 255.410156 116.335938 L 255.429688 116.46875 L 255.453125 116.601562 L 259.523438 115.800781 Z M 256.976562 112.527344 "/>
<path fill-rule="nonzero" fill="rgb(0%, 0%, 100%)" fill-opacity="1" stroke-width="0.75" stroke-linecap="round" stroke-linejoin="round" stroke="rgb(0%, 0%, 0%)" stroke-opacity="1" stroke-miterlimit="10" d="M 255.453125 116.601562 L 255.480469 116.734375 L 255.511719 116.863281 L 255.550781 116.988281 L 255.589844 117.117188 L 255.632812 117.242188 L 255.683594 117.367188 L 255.734375 117.488281 L 255.789062 117.609375 L 255.914062 117.84375 L 255.980469 117.957031 L 256.050781 118.070312 L 256.125 118.179688 L 256.203125 118.289062 L 256.285156 118.394531 L 256.371094 118.496094 L 256.457031 118.59375 L 256.550781 118.691406 L 256.644531 118.785156 L 256.839844 118.964844 L 256.941406 119.046875 L 257.046875 119.128906 L 257.15625 119.207031 L 257.265625 119.28125 L 257.378906 119.351562 L 257.492188 119.417969 L 257.609375 119.480469 L 257.730469 119.539062 L 257.972656 119.648438 L 258.097656 119.695312 L 258.222656 119.738281 L 258.347656 119.777344 L 258.476562 119.8125 L 258.605469 119.84375 L 258.734375 119.871094 L 258.867188 119.894531 L 258.996094 119.914062 L 259.128906 119.929688 L 259.394531 119.945312 L 259.660156 119.945312 L 259.792969 119.9375 L 260.058594 119.914062 L 260.1875 119.894531 L 260.320312 119.871094 L 260.449219 119.84375 L 260.707031 119.773438 L 260.832031 119.734375 L 260.957031 119.691406 L 261.082031 119.640625 L 261.203125 119.589844 L 261.324219 119.535156 L 261.445312 119.476562 L 261.5625 119.410156 L 261.675781 119.34375 L 261.789062 119.273438 L 261.898438 119.199219 L 262.003906 119.121094 L 262.214844 118.957031 L 262.410156 118.777344 L 262.503906 118.683594 L 262.683594 118.488281 L 262.847656 118.277344 L 262.925781 118.171875 L 263 118.0625 L 263.070312 117.949219 L 263.136719 117.832031 L 263.199219 117.714844 L 263.257812 117.597656 L 263.316406 117.476562 L 263.367188 117.355469 L 263.414062 117.230469 L 263.5 116.980469 L 263.535156 116.851562 L 263.566406 116.722656 L 263.59375 116.59375 L 263.617188 116.460938 L 263.636719 116.328125 L 263.652344 116.199219 L 263.667969 115.933594 L 263.667969 115.800781 L 259.523438 115.800781 Z M 255.453125 116.601562 "/>
<path fill="none" stroke-width="0.75" stroke-linecap="round" stroke-linejoin="round" stroke="rgb(0%, 0%, 0%)" stroke-opacity="1" stroke-miterlimit="10" d="M 263.667969 115.800781 L 259.523438 115.800781 Z M 263.667969 115.800781 "/>
<g clip-path="url(#clip-0)">
<path fill-rule="nonzero" fill="rgb(100%, 100%, 100%)" fill-opacity="1" d="M 59.039062 344.160156 L 93.039062 344.160156 L 93.039062 430.558594 L 59.039062 430.558594 Z M 59.039062 344.160156 "/>
</g>
<g clip-path="url(#clip-1)">
<path fill="none" stroke-width="0.75" stroke-linecap="round" stroke-linejoin="round" stroke="rgb(0%, 0%, 0%)" stroke-opacity="1" stroke-miterlimit="10" d="M 59.039062 344.160156 L 93.039062 344.160156 L 93.039062 430.558594 L 59.039062 430.558594 Z M 59.039062 344.160156 "/>
</g>
<path fill-rule="nonzero" fill="rgb(100%, 0%, 0%)" fill-opacity="1" stroke-width="0.75" stroke-linecap="round" stroke-linejoin="round" stroke="rgb(0%, 0%, 0%)" stroke-opacity="1" stroke-miterlimit="10" d="M 72.539062 358.558594 C 72.539062 362.160156 67.140625 362.160156 67.140625 358.558594 C 67.140625 354.960938 72.539062 354.960938 72.539062 358.558594 "/>
<path fill-rule="nonzero" fill="rgb(100%, 100%, 0%)" fill-opacity="1" stroke-width="0.75" stroke-linecap="round" stroke-linejoin="round" stroke="rgb(0%, 0%, 0%)" stroke-opacity="1" stroke-miterlimit="10" d="M 72.539062 372.960938 C 72.539062 376.558594 67.140625 376.558594 67.140625 372.960938 C 67.140625 369.359375 72.539062 369.359375 72.539062 372.960938 "/>
<path fill-rule="nonzero" fill="rgb(0%, 100%, 0%)" fill-opacity="1" stroke-width="0.75" stroke-linecap="round" stroke-linejoin="round" stroke="rgb(0%, 0%, 0%)" stroke-opacity="1" stroke-miterlimit="10" d="M 72.539062 387.359375 C 72.539062 390.960938 67.140625 390.960938 67.140625 387.359375 C 67.140625 383.761719 72.539062 383.761719 72.539062 387.359375 "/>
<path fill-rule="nonzero" fill="rgb(0%, 0%, 100%)" fill-opacity="1" stroke-width="0.75" stroke-linecap="round" stroke-linejoin="round" stroke="rgb(0%, 0%, 0%)" stroke-opacity="1" stroke-miterlimit="10" d="M 72.539062 401.761719 C 72.539062 405.359375 67.140625 405.359375 67.140625 401.761719 C 67.140625 398.160156 72.539062 398.160156 72.539062 401.761719 "/>
<path fill-rule="nonzero" fill="rgb(0%, 0%, 0%)" fill-opacity="1" stroke-width="0.75" stroke-linecap="round" stroke-linejoin="round" stroke="rgb(0%, 0%, 0%)" stroke-opacity="1" stroke-miterlimit="10" d="M 72.539062 416.160156 C 72.539062 419.761719 67.140625 419.761719 67.140625 416.160156 C 67.140625 412.558594 72.539062 412.558594 72.539062 416.160156 "/>
<g fill="rgb(0%, 0%, 0%)" fill-opacity="1">
<use xlink:href="#glyph-1-0" x="80.640625" y="362.806641"/>
</g>
<g fill="rgb(0%, 0%, 0%)" fill-opacity="1">
<use xlink:href="#glyph-1-1" x="80.640625" y="377.208984"/>
</g>
<g fill="rgb(0%, 0%, 0%)" fill-opacity="1">
<use xlink:href="#glyph-1-2" x="80.640625" y="391.607422"/>
</g>
<g fill="rgb(0%, 0%, 0%)" fill-opacity="1">
<use xlink:href="#glyph-1-3" x="80.640625" y="406.009766"/>
</g>
<g fill="rgb(0%, 0%, 0%)" fill-opacity="1">
<use xlink:href="#glyph-1-4" x="80.640625" y="420.408203"/>
</g>
<g fill="rgb(0%, 0%, 0%)" fill-opacity="1">
<use xlink:href="#glyph-1-1" x="372.9375" y="413.849609"/>
<use xlink:href="#glyph-1-5" x="379.9375" y="413.849609"/>
<use xlink:href="#glyph-1-2" x="386.9375" y="413.849609"/>
</g>
<g fill="rgb(0%, 0%, 0%)" fill-opacity="1">
<use xlink:href="#glyph-1-0" x="301.230469" y="241.849609"/>
<use xlink:href="#glyph-1-6" x="308.230469" y="241.849609"/>
<use xlink:href="#glyph-1-3" x="315.230469" y="241.849609"/>
<use xlink:href="#glyph-1-7" x="318.230469" y="241.849609"/>
<use xlink:href="#glyph-1-1" x="321.230469" y="241.849609"/>
<use xlink:href="#glyph-1-5" x="328.230469" y="241.849609"/>
<use xlink:href="#glyph-1-2" x="335.230469" y="241.849609"/>
</g>
<g fill="rgb(0%, 0%, 0%)" fill-opacity="1">
<use xlink:href="#glyph-1-0" x="158.460938" y="112.849609"/>
<use xlink:href="#glyph-1-6" x="165.460938" y="112.849609"/>
<use xlink:href="#glyph-1-3" x="172.460938" y="112.849609"/>
</g>
</svg>
